# xmcd
#
# Track frame offsets:
#	150
#	21380
#	43811
#	63919
#	80430
#	101938
#	122645
#	142355
#	157065
#	177216
#	196573
#	218377
#	235820
#	255238
#	277011
#	297397
#	317201
#	336462
#
# Disc length: 4769 seconds
#
# Revision: 0
# Processed by: cddbd v1.5.1PL0 Copyright (c) Steve Scherf et al.
# Submitted via: dBpowerAMP V4.0
#
DISCID=13129f12
DTITLE=周蕙 - 周蕙精选 3 寂寞城市
DYEAR=2002
DGENRE=pop
TTITLE0=体温
TTITLE1=寂寞城市
TTITLE2=只能做朋友
TTITLE3=我很快乐
TTITLE4=Hold Me Tight
TTITLE5=别对我太好
TTITLE6=瞬间
TTITLE7=不管
TTITLE8=隐形
TTITLE9=终点
TTITLE10=今宵多珍重
TTITLE11=我要你的爱
TTITLE12=好想好好爱你
TTITLE13=话题
TTITLE14=风铃
TTITLE15=不想让你知道
TTITLE16=约定
TTITLE17=相遇太早
EXTD=
EXTT0=
EXTT1=
EXTT2=
EXTT3=
EXTT4=
EXTT5=
EXTT6=
EXTT7=
EXTT8=
EXTT9=
EXTT10=
EXTT11=
EXTT12=
EXTT13=
EXTT14=
EXTT15=
EXTT16=
EXTT17=
PLAYORDER=
